<svg xmlns="http://www.w3.org/2000/svg" viewBox="0 0 463 463">
    <path d="M231.5 88C152.374 88 88 152.374 88 231.5S152.374 375 231.5 375 375 310.626 375 231.5 310.626 88 231.5 88zm0 272C160.645 360 103 302.355 103 231.5S160.645 103 231.5 103 360 160.645 360 231.5 302.355 360 231.5 360z"
          fill="#253b9e"/>
    <path d="M231.5 168c-35.014 0-63.5 28.486-63.5 63.5s28.486 63.5 63.5 63.5 63.5-28.486 63.5-63.5-28.486-63.5-63.5-63.5zm0 112c-26.743 0-48.5-21.757-48.5-48.5s21.757-48.5 48.5-48.5 48.5 21.757 48.5 48.5-21.757 48.5-48.5 48.5z"
          fill="#253b9e"/>
    <path d="M231.5 120C170.02 120 120 170.02 120 231.5S170.02 343 231.5 343 343 292.98 343 231.5 292.98 120 231.5 120zm0 208c-53.21 0-96.5-43.29-96.5-96.5s43.29-96.5 96.5-96.5 96.5 43.29 96.5 96.5-43.29 96.5-96.5 96.5z"
          fill="#253b9e"/>
    <path d="M439.5 192h-12.46c-5.09-25.42-14.943-49.188-29.357-70.822l8.826-8.825c4.437-4.438 6.882-10.34 6.882-16.617s-2.445-12.18-6.883-16.617l-22.63-22.63c-9.162-9.16-24.07-9.16-33.233 0l-8.83 8.83C320.397 51.092 296.14 41.037 271 35.965V23.5C271 10.542 260.458 0 247.5 0h-32C202.542 0 192 10.542 192 23.5v12.465c-25.14 5.072-49.396 15.127-70.818 29.355l-8.83-8.83c-9.163-9.16-24.072-9.16-33.234 0L56.49 79.118c-4.437 4.438-6.882 10.34-6.882 16.617s2.445 12.18 6.883 16.617l8.827 8.825C50.903 142.813 41.05 166.58 35.96 192H23.5C10.542 192 0 202.542 0 215.5v32C0 260.458 10.542 271 23.5 271h12.465c5.073 25.14 15.127 49.396 29.355 70.817l-8.83 8.83c-9.162 9.162-9.162 24.07 0 33.234l22.627 22.627a23.347 23.347 0 0 0 16.618 6.884 23.345 23.345 0 0 0 16.617-6.882l8.83-8.83c21.422 14.23 45.68 24.283 70.818 29.355V439.5c0 12.958 10.542 23.5 23.5 23.5h32c12.958 0 23.5-10.542 23.5-23.5v-12.466c25.14-5.072 49.396-15.127 70.818-29.355l8.83 8.828a23.346 23.346 0 0 0 16.616 6.884c6.277 0 12.18-2.444 16.617-6.883l22.63-22.63c9.16-9.16 9.16-24.07 0-33.233l-8.83-8.83c14.227-21.42 24.282-45.677 29.354-70.816H439.5c12.958 0 23.5-10.54 23.5-23.5v-32c0-12.958-10.542-23.5-23.5-23.5zm8.5 55.5c0 4.687-3.813 8.5-8.5 8.5h-18.706a7.5 7.5 0 0 0-7.396 6.26c-4.635 27.61-15.248 53.215-31.543 76.1a7.5 7.5 0 0 0 .806 9.653l13.242 13.24c3.314 3.314 3.314 8.708 0 12.02l-22.628 22.63a8.445 8.445 0 0 1-6.01 2.488 8.443 8.443 0 0 1-6.01-2.49l-13.24-13.24a7.5 7.5 0 0 0-9.654-.806c-22.885 16.296-48.49 26.908-76.1 31.543a7.5 7.5 0 0 0-6.26 7.396V439.5c0 4.687-3.812 8.5-8.5 8.5h-32c-4.686 0-8.5-3.813-8.5-8.5v-18.706a7.5 7.5 0 0 0-6.257-7.396c-27.612-4.635-53.216-15.247-76.1-31.543a7.476 7.476 0 0 0-4.35-1.39 7.494 7.494 0 0 0-5.305 2.195l-13.242 13.242a8.445 8.445 0 0 1-6.01 2.49 8.444 8.444 0 0 1-6.01-2.49l-22.628-22.627c-3.314-3.314-3.314-8.708 0-12.02l13.24-13.242a7.5 7.5 0 0 0 .807-9.654c-16.295-22.885-26.908-48.49-31.543-76.1a7.5 7.5 0 0 0-7.396-6.26H23.5c-4.687 0-8.5-3.813-8.5-8.5v-32c0-4.687 3.813-8.5 8.5-8.5h18.706a7.5 7.5 0 0 0 7.396-6.26c4.635-27.61 15.248-53.214 31.543-76.1a7.5 7.5 0 0 0-.806-9.654l-13.242-13.24c-1.605-1.606-2.49-3.74-2.49-6.01s.884-4.405 2.49-6.01l22.627-22.63c3.314-3.312 8.707-3.314 12.02 0l13.242 13.242a7.497 7.497 0 0 0 9.653.806c22.885-16.296 48.49-26.908 76.1-31.543a7.5 7.5 0 0 0 6.26-7.395V23.5c0-4.687 3.812-8.5 8.5-8.5h32c4.686 0 8.5 3.813 8.5 8.5v18.705a7.5 7.5 0 0 0 6.257 7.396c27.612 4.636 53.216 15.248 76.1 31.544a7.5 7.5 0 0 0 9.654-.806l13.242-13.24c3.314-3.314 8.707-3.315 12.02-.002l22.628 22.63c1.605 1.604 2.49 3.738 2.49 6.01s-.884 4.403-2.49 6.01l-13.24 13.24a7.5 7.5 0 0 0-.807 9.654c16.295 22.886 26.908 48.49 31.543 76.1a7.5 7.5 0 0 0 7.396 6.26H439.5c4.687 0 8.5 3.813 8.5 8.5v32z"
          fill="#253b9e"/>
</svg>