<svg xmlns="http://www.w3.org/2000/svg" viewBox="0 0 512 512" width="512" height="512">
    <path d="M476.158 231.363l-13.26-53.035c3.626-.77 6.346-3.986 6.346-7.84v-8.55c0-18.566-15.105-33.67-33.67-33.67h-60.392V110.63c0-9.136-7.432-16.568-16.568-16.568H50.772c-9.136 0-16.568 7.432-16.568 16.568V256a8.017 8.017 0 0 0 16.034 0V110.63c0-.294.24-.534.534-.534h307.84c.296 0 .535.24.535.534v145.372a8.017 8.017 0 0 0 16.034 0v-9.088h94.57l.02.002h.023c11.637.007 21.518 7.645 24.912 18.17h-24.928a8.017 8.017 0 0 0-8.017 8.017v17.102c0 13.85 11.268 25.12 25.12 25.12h9.085v35.272h-20.962c-6.886-19.884-25.787-34.205-47.982-34.205s-41.096 14.32-47.98 34.205h-3.86v-60.393a8.017 8.017 0 0 0-16.035 0v60.39H192.817c-6.886-19.883-25.787-34.204-47.982-34.204s-41.097 14.32-47.982 34.205h-46.08a.535.535 0 0 1-.535-.534v-17.636h34.74a8.017 8.017 0 0 0 0-16.034H8.016a8.017 8.017 0 0 0 0 16.034h26.188v17.637c0 9.137 7.432 16.57 16.568 16.57h43.304c-.002.177-.014.355-.014.533 0 27.995 22.777 50.772 50.772 50.772s50.772-22.777 50.772-50.772c0-.178-.012-.356-.014-.534h180.67c-.002.177-.014.355-.014.533 0 27.995 22.776 50.772 50.77 50.772 27.996 0 50.773-22.777 50.773-50.772 0-.178-.012-.356-.014-.534h26.202A8.017 8.017 0 0 0 512 358.61v-85.51c0-21.113-15.577-38.654-35.842-41.74zM375.182 144.3h60.392c9.725 0 17.637 7.913 17.637 17.638v.534h-78.028v-18.17zm0 86.58v-52.375h71.235l13.094 52.376h-84.328zM144.835 401.905c-19.155 0-34.74-15.583-34.74-34.74s15.585-34.738 34.74-34.738 34.74 15.583 34.74 34.74-15.585 34.738-34.74 34.738zm282.188 0c-19.155 0-34.74-15.583-34.74-34.74s15.585-34.738 34.74-34.738 34.74 15.583 34.74 34.74-15.585 34.738-34.74 34.738zm68.944-102.614h-9.086c-5.01 0-9.085-4.076-9.085-9.086v-9.086h18.17v18.172z"
          fill="#253b9e"/>
    <path d="M144.835 350.597c-9.136 0-16.568 7.432-16.568 16.568 0 9.136 7.432 16.568 16.568 16.568 9.136 0 16.568-7.432 16.568-16.568 0-9.136-7.432-16.568-16.568-16.568zM427.023 350.597c-9.136 0-16.568 7.432-16.568 16.568 0 9.136 7.432 16.568 16.568 16.568 9.136 0 16.568-7.432 16.568-16.568 0-9.136-7.43-16.568-16.567-16.568zM332.96 316.393H213.244a8.017 8.017 0 0 0 0 16.034H332.96a8.017 8.017 0 0 0 0-16.034zM127.733 282.188H25.12a8.017 8.017 0 0 0 0 16.034h102.613a8.017 8.017 0 0 0 0-16.034zM204.693 136.818c-42.14 0-76.426 34.285-76.426 76.426s34.285 76.426 76.426 76.426 76.426-34.285 76.426-76.426-34.286-76.426-76.427-76.426zm0 136.82c-33.3 0-60.392-27.093-60.392-60.393s27.093-60.392 60.393-60.392 60.392 27.092 60.392 60.392-27.092 60.392-60.392 60.392z"
          fill="#253b9e"/>
    <path d="M236.015 233.23l-23.305-23.306V179.04a8.017 8.017 0 0 0-16.034 0v34.205c0 2.126.844 4.164 2.348 5.668l25.653 25.653c1.565 1.565 3.617 2.348 5.668 2.348s4.104-.782 5.668-2.348a8.014 8.014 0 0 0 .002-11.337z"
          fill="#253b9e"/>
</svg>