<svg xmlns="http://www.w3.org/2000/svg" viewBox="0 0 512 512" width="512" height="512">
    <path d="M438.973 411.718c-14.598 0-26.475 11.876-26.475 26.475 0 14.598 11.876 26.474 26.475 26.474 14.598 0 26.474-11.876 26.474-26.474s-11.876-26.475-26.474-26.475zm0 37.26c-5.947 0-10.785-4.84-10.785-10.785 0-5.946 4.838-10.784 10.784-10.784 5.946 0 10.784 4.837 10.784 10.783s-4.838 10.784-10.784 10.784z"
          fill="#253b9e"/>
    <path d="M510.303 436.82c-.5-19.383-8.704-37.21-23.102-50.198L329.25 244.157 468.906 104.5a14.816 14.816 0 0 0 2.7-1.078L501.85 87.46c4.178-2.206 6.98-6.152 7.685-10.823.706-4.672-.805-9.268-4.146-12.612l-34.053-34.05c-3.342-3.342-7.935-4.853-12.61-4.147-4.672.705-8.617 3.507-10.824 7.686l-15.963 30.24a14.882 14.882 0 0 0-1.1 2.724l-65.92 65.92a7.846 7.846 0 0 0 11.097 11.096L436.51 83l15.852 15.854-154.7 154.7L281.81 237.7l67.524-67.523a7.846 7.846 0 0 0-11.096-11.096l-48.994 48.995-53.322-48.094a120.384 120.384 0 0 0-28.625-124.724c-33.59-33.59-83.983-44.296-128.38-27.27a7.844 7.844 0 0 0-2.74 12.874l61.593 61.593a9.586 9.586 0 0 1 2.827 6.822c0 2.577-1.004 5-2.827 6.823l-40 40a9.582 9.582 0 0 1-6.82 2.826c-2.578 0-5-1.003-6.824-2.827L22.533 74.504A7.847 7.847 0 0 0 9.66 77.242c-17.027 44.396-6.322 94.788 27.27 128.38 31.99 31.99 79.468 43.254 122.3 29.415l41.226 45.083a42.275 42.275 0 0 1-7.734 10.658c-11.884 11.884-29.695 15.628-45.38 9.54a7.842 7.842 0 0 0-8.388 1.765l-96.06 96.06c-26.003 26.004-26.003 68.316 0 94.32C55.495 505.062 72.245 512 90.06 512s34.564-6.937 47.16-19.534l96.06-96.058a7.847 7.847 0 0 0 1.765-8.388c-6.09-15.684-2.345-33.497 9.538-45.38 11.887-11.885 29.7-15.63 45.383-9.54a7.844 7.844 0 0 0 8.388-1.766l18.12-18.12c5.457-5.456 8.46-12.71 8.46-20.426 0-7.715-3.003-14.97-8.46-20.426l-7.712-7.713 9.383-9.384 158.553 143.007c11.172 10.077 17.54 23.91 17.926 38.95.386 15.04-5.26 29.184-15.9 39.822-10.587 10.59-24.694 16.226-39.635 15.903-14.97-.334-28.78-6.604-38.886-17.655L282.31 346.378a7.846 7.846 0 0 0-11.58 10.59L388.62 485.88c13.023 14.24 30.82 22.32 50.114 22.752.54.012 1.08.018 1.618.018 18.688 0 36.2-7.25 49.464-20.512 13.71-13.71 20.985-31.937 20.487-51.32zM446.15 70.45l15.018-28.454 32.2 32.2-28.455 15.018L446.15 70.45zM167.323 220.64a7.847 7.847 0 0 0-8.532-2.057c-38.363 14.31-81.845 4.868-110.768-24.052-26.262-26.262-36.438-64.336-27.47-99.814l52.476 52.477c4.787 4.786 11.15 7.42 17.918 7.42s13.13-2.634 17.917-7.42l40-40c4.785-4.786 7.42-11.15 7.42-17.917s-2.635-13.13-7.42-17.917L96.387 18.88c35.475-8.97 73.553 1.208 99.814 27.47 29.66 29.658 38.773 74.004 23.222 112.98a7.843 7.843 0 0 0 2.032 8.732l56.68 51.122-7.423 7.422-7.713-7.713c-5.456-5.456-12.71-8.46-20.426-8.46-7.715 0-14.97 3.004-20.426 8.46l-18.12 18.12a7.847 7.847 0 0 0-1.765 8.388c2.087 5.376 2.992 10.998 2.837 16.55l-37.776-41.31zm138.05 81.48L290.692 316.8c-20.192-5.82-42.164-.3-57.205 14.74-15.04 15.042-20.564 37.01-14.74 57.207l-92.623 92.62c-9.634 9.633-22.442 14.94-36.065 14.94s-26.434-5.307-36.066-14.94c-19.887-19.887-19.887-52.245 0-72.132l92.62-92.62c20.195 5.823 42.164.297 57.206-14.743 15.04-15.04 20.564-37.01 14.74-57.205l14.684-14.682c5.144-5.146 13.517-5.146 18.66 0l13.262 13.26 26.947 26.948 13.26 13.26c5.147 5.147 5.147 13.52 0 18.663z"
          fill="#253b9e"/>
    <path d="M162.326 346.25a7.848 7.848 0 0 0-11.096 0l-74.318 74.317a7.846 7.846 0 0 0 11.096 11.096l74.318-74.318a7.848 7.848 0 0 0 0-11.096zM189.785 373.708a7.848 7.848 0 0 0-11.096 0l-74.32 74.317a7.846 7.846 0 0 0 11.097 11.096l74.318-74.316a7.846 7.846 0 0 0 0-11.096z"
          fill="#253b9e"/>
</svg>