<svg xmlns="http://www.w3.org/2000/svg" viewBox="0 0 237.73145 296.8988" height="1122.137" width="898.513"><g fill="#efeff3"><path d="M193.157 123.706H69.34a4.953 4.95 0 0 0 0 9.897h123.817a4.953 4.95 0 0 0 0-9.897zM69.34 94.018h49.527a4.953 4.95 0 0 0 0-9.898H69.34a4.953 4.95 0 0 0 0 9.898zm123.817 69.275H69.34a4.952 4.948 0 0 0 0 9.896h123.817a4.952 4.948 0 0 0 0-9.897zm0 39.588H69.34a4.95 4.947 0 0 0 0 9.894h123.817a4.952 4.948 0 0 0 0-9.895zm0 39.583H69.34a4.954 4.95 0 0 0 0 9.9h123.817a4.953 4.95 0 0 0 0-9.898z"/><path d="M212.967 72.176V0H0v272.155h24.766V296.9H237.73V96.914zm-44.574-30.54l44.574 44.533 7.854 7.845h-52.427zM9.906 262.257V9.898h193.16v52.38l-37.578-37.534H24.766v237.51zM34.668 287V34.636H158.49v69.278h69.337v183.084z"/></g></svg>